<svg width="102" height="84" xmlns="http://www.w3.org/2000/svg"><g fill="none" fill-rule="evenodd"><path d="M96.63 46.027C96.63 20.607 76.027 0 50.614 0 25.203 0 4.601 20.606 4.601 46.027a45.86 45.86 0 004.1 18.987H92.53a45.86 45.86 0 004.1-18.987" fill="#E5F0FB"/><path stroke="#0069D8" stroke-linecap="round" stroke-linejoin="round" d="M5.752 65.014h89.727m-94.904 0h2.876m94.329 0h2.876"/><path d="M43.14 60.411a4.602 4.602 0 109.204 0 4.602 4.602 0 00-9.205 0" fill="#99C3EF"/><path d="M43.14 60.411a4.602 4.602 0 109.204 0 4.602 4.602 0 00-9.205 0z" stroke="#0069D8" stroke-linecap="round" stroke-linejoin="round"/><path d="M73.624 60.411a4.602 4.602 0 109.204 0 4.602 4.602 0 00-9.204 0" fill="#99C3EF"/><path d="M73.624 60.411a4.602 4.602 0 109.204 0 4.602 4.602 0 00-9.204 0z" stroke="#0069D8" stroke-linecap="round" stroke-linejoin="round"/><path d="M44.865 60.411a2.877 2.877 0 105.753 0 2.877 2.877 0 00-5.753 0" fill="#FFF"/><path d="M44.865 60.411a2.877 2.877 0 105.753 0 2.877 2.877 0 00-5.753 0z" stroke="#0069D8" stroke-linecap="round" stroke-linejoin="round"/><path d="M80.526 60.411a2.302 2.302 0 11-4.604-.001 2.302 2.302 0 014.604.001" fill="#FFF"/><path d="M80.526 60.411a2.302 2.302 0 11-4.604-.001 2.302 2.302 0 014.604.001z" stroke="#0069D8" stroke-linecap="round" stroke-linejoin="round"/><path d="M34.767 61.35a1.152 1.152 0 001.13 1.364h5.04c.305 0 .598-.122.814-.337l.476-.477a1.15 1.15 0 01.813-.337h9.401c.305 0 .597.121.813.337l.477.477c.216.215.508.337.813.337h17.15a1.15 1.15 0 001.068-.724l1.433-3.584a2.302 2.302 0 012.137-1.445h3.787c.94 0 1.786.573 2.136 1.445l1.432 3.584c.175.437.598.724 1.069.724h2.835c.568 0 1.05-.415 1.138-.976l.765-4.975a2.303 2.303 0 00-1.09-2.325l-1.551-.93-.14-.559a2.301 2.301 0 00-2.232-1.742H71.323l-2.021-3.033a4.6 4.6 0 00-4.006-2.046l-4.935.19a34.493 34.493 0 00-14.106 3.619l-2.54 1.27-3.492 1.074a6.904 6.904 0 00-4.754 5.326l-.702 3.743z" fill="#FFF"/><path d="M34.767 61.35a1.152 1.152 0 001.13 1.364h5.04c.305 0 .598-.122.814-.337l.476-.477a1.15 1.15 0 01.813-.337h9.401c.305 0 .597.121.813.337l.477.477c.216.215.508.337.813.337h17.15a1.15 1.15 0 001.068-.724l1.433-3.584a2.302 2.302 0 012.137-1.445h3.787c.94 0 1.786.573 2.136 1.445l1.432 3.584c.175.437.598.724 1.069.724h2.835c.568 0 1.05-.415 1.138-.976l.765-4.975a2.303 2.303 0 00-1.09-2.325l-1.551-.93-.14-.559a2.301 2.301 0 00-2.232-1.742H71.323l-2.021-3.033a4.6 4.6 0 00-4.006-2.046l-4.935.19a34.493 34.493 0 00-14.106 3.619l-2.54 1.27-3.492 1.074a6.904 6.904 0 00-4.754 5.326l-.702 3.743z" stroke="#0069D8" stroke-linecap="round" stroke-linejoin="round"/><path d="M86.853 53.508l-22.337.545a3.11 3.11 0 00-2.127.913 3.126 3.126 0 01-2.036.908l-18.366.99a3.449 3.449 0 00-2.68 1.532l-1.344 2.016" stroke="#0069D8" stroke-linecap="round" stroke-linejoin="round"/><path d="M57.215 48.857l8.915-.496c.371-.02.73.14.962.43l1.93 2.414h-13.23l.37-1.478c.123-.49.55-.842 1.053-.87" fill="#99C3EF"/><path d="M61.272 48.632l4.858-.27c.37-.02.73.139.962.43l1.93 2.413h-5.176l-2.574-2.573z" fill="#FFF"/><path d="M57.215 48.857l8.915-.496c.371-.02.73.14.962.43l1.93 2.414h-13.23l.37-1.478c.123-.49.55-.842 1.053-.87z" stroke="#0069D8" stroke-linecap="round" stroke-linejoin="round"/><path d="M54.643 48.904l-.575 2.301h-5.752s4.155-2.3 6.327-2.3" fill="#D6DAFF"/><path d="M54.643 48.904l-.575 2.301h-5.752s4.155-2.3 6.327-2.3z" stroke="#0069D8" stroke-linecap="round" stroke-linejoin="round"/><path d="M85.593 61.126a.576.576 0 00.558.436h3.578a1.15 1.15 0 100-2.302h-3.865a.575.575 0 00-.558.715l.287 1.15z" fill="#99C3EF"/><path d="M85.593 61.126a.576.576 0 00.558.436h3.578a1.15 1.15 0 100-2.302h-3.865a.575.575 0 00-.558.715l.287 1.15z" stroke="#0069D8" stroke-linecap="round" stroke-linejoin="round"/><path d="M33.936 61.562h4.153c.264 0 .494-.18.558-.436l.288-1.151a.575.575 0 00-.558-.715h-4.44a1.15 1.15 0 100 2.302" fill="#D6DAFF"/><path d="M33.936 61.562h4.153c.264 0 .494-.18.558-.436l.288-1.151a.575.575 0 00-.558-.715h-4.44a1.15 1.15 0 100 2.302z" stroke="#4550E6" stroke-linecap="round" stroke-linejoin="round"/><path stroke="#0069D8" stroke-linecap="round" stroke-linejoin="round" d="M69.022 51.205l1.726 2.877-1.726 8.63M55.793 51.205v11.507"/><path d="M43.34 76.808h.662c.723 0 1.4.195 1.985.532V56.297H28.789V77.34a3.953 3.953 0 011.984-.532h.662c1.43 0 2.681.756 3.38 1.89l.515-14.462a2.06 2.06 0 014.116 0l.514 14.463a3.964 3.964 0 013.38-1.89" fill="#FFF"/><path d="M35.403 58.283a2.646 2.646 0 01-2.646 2.646m6.615-2.646a2.647 2.647 0 002.646 2.646" stroke="#0069D8" stroke-linecap="round" stroke-linejoin="round"/><path d="M43.34 76.808h.662c.723 0 1.4.195 1.985.532V56.297H28.789V77.34a3.953 3.953 0 011.984-.532h.662c1.43 0 2.681.756 3.38 1.89l.515-14.462a2.06 2.06 0 014.116 0l.514 14.463a3.964 3.964 0 013.38-1.89z" stroke="#0069D8" stroke-linecap="round" stroke-linejoin="round"/><path d="M54.585 81.44c0 1.096-7.699 1.985-17.197 1.985-9.499 0-17.198-.89-17.198-1.985 0-1.096 7.7-1.986 17.198-1.986 9.498 0 17.197.89 17.197 1.986" fill="#E5F0FB"/><path d="M46.294 80.778a1.326 1.326 0 001.146-1.986 3.967 3.967 0 00-3.438-1.984h-.66a3.97 3.97 0 00-3.439 1.984 1.328 1.328 0 00-.001 1.326c.237.408.674.66 1.147.66h5.245z" fill="#99C3EF"/><path d="M46.294 80.778a1.326 1.326 0 001.146-1.986 3.967 3.967 0 00-3.438-1.984h-.66a3.97 3.97 0 00-3.439 1.984 1.328 1.328 0 00-.001 1.326c.237.408.674.66 1.147.66h5.245z" stroke="#0069D8" stroke-linecap="round" stroke-linejoin="round"/><path d="M33.726 80.778a1.324 1.324 0 001.146-1.986 3.965 3.965 0 00-3.437-1.984h-.662a3.968 3.968 0 00-3.438 1.984 1.325 1.325 0 001.146 1.986h5.245z" fill="#99C3EF"/><path d="M33.726 80.778a1.324 1.324 0 001.146-1.986 3.965 3.965 0 00-3.437-1.984h-.662a3.968 3.968 0 00-3.438 1.984 1.325 1.325 0 001.146 1.986h5.245z" stroke="#0069D8" stroke-linecap="round" stroke-linejoin="round"/><path d="M40.695 56.297l5.291 1.323c5.759-3.874 5.292-11.91 5.292-11.91 0-7.673-6.219-13.893-13.89-13.893-7.672 0-13.891 6.22-13.891 13.894 0 0-.467 8.035 5.292 11.91l5.291-1.324h6.615z" fill="#99C3EF"/><path d="M34.08 56.297c-4.192-2.698-5.291-13.894-5.291-13.894m11.906 13.894c4.192-2.698 5.291-13.894 5.291-13.894" stroke="#0069D8" stroke-linecap="round" stroke-linejoin="round"/><path d="M40.695 56.297l5.291 1.323c5.759-3.874 5.292-11.91 5.292-11.91 0-7.673-6.219-13.893-13.89-13.893-7.672 0-13.891 6.22-13.891 13.894 0 0-.467 8.035 5.292 11.91l5.291-1.324h6.615zm-3.307-7.939v7.939" stroke="#0069D8" stroke-linecap="round" stroke-linejoin="round"/><path d="M41.261 32.375a13.84 13.84 0 00-3.873-.558c-1.346 0-2.644.2-3.873.558l3.873 15.983 3.873-15.983z" fill="#FFF"/><path d="M41.261 32.375a13.84 13.84 0 00-3.873-.558c-1.346 0-2.644.2-3.873.558l3.873 15.983 3.873-15.983z" stroke="#0069D8" stroke-linecap="round" stroke-linejoin="round"/><path d="M37.388 35.786a3.964 3.964 0 003.616-2.35l.257-1.06a13.883 13.883 0 00-3.873-.559c-1.346 0-2.643.201-3.874.558l.257 1.061a3.965 3.965 0 003.617 2.35" fill="#FFF"/><path d="M37.388 35.786a3.964 3.964 0 003.616-2.35l.257-1.06a13.883 13.883 0 00-3.873-.559c-1.346 0-2.643.201-3.874.558l.257 1.061a3.965 3.965 0 003.617 2.35zm6.502 21.31s0 .248.015.66" stroke="#0069D8" stroke-linecap="round" stroke-linejoin="round"/><path d="M44.1 60.114c.322 2.43 1.14 5.445 3.21 5.445 2.375 0 .874-3.106-.307-5.062" stroke="#0069D8" stroke-linecap="round" stroke-linejoin="round" stroke-dasharray="0.895,1.791"/><path d="M46.36 59.485c-.225-.337-.373-.542-.373-.542" stroke="#0069D8" stroke-linecap="round" stroke-linejoin="round"/><path d="M46.904 17.26c0 5.262-4.264 9.528-9.525 9.528-5.26 0-9.525-4.266-9.525-9.528 0-5.864 3.332-10.321 6.35-10.321 2.422 3.84 12.7-.766 12.7 10.321" fill="#FFF"/><path d="M46.904 17.26c0 5.262-4.264 9.528-9.525 9.528-5.26 0-9.525-4.266-9.525-9.528 0-5.864 3.332-10.321 6.35-10.321 2.422 3.84 12.7-.766 12.7 10.321z" stroke="#0069D8" stroke-linecap="round" stroke-linejoin="round"/><path d="M45.325 19.643l-1.6.792-1.153-4.037c-.229-.802-1.04-1.303-1.853-1.118-.86.197-2.043.393-3.343.393-1.3 0-2.481-.196-3.343-.393-.812-.185-1.624.316-1.853 1.118l-1.154 4.037-1.576-.792c-2.265 0-2.112 3.97.397 3.97l.007-.003c1.016 3.214 3.986 5.56 7.533 5.56 3.55 0 6.52-2.346 7.534-5.56l.007.002c2.509 0 2.662-3.97.397-3.97" fill="#FFF"/><path d="M45.325 19.643l-1.6.792-1.153-4.037c-.229-.802-1.04-1.303-1.853-1.118-.86.197-2.043.393-3.343.393-1.3 0-2.481-.196-3.343-.393-.812-.185-1.624.316-1.853 1.118l-1.154 4.037-1.576-.792c-2.265 0-2.112 3.97.397 3.97l.007-.003c1.016 3.214 3.986 5.56 7.533 5.56 3.55 0 6.52-2.346 7.534-5.56l.007.002c2.509 0 2.662-3.97.397-3.97z" stroke="#0069D8" stroke-linecap="round" stroke-linejoin="round"/><path d="M33.427 22.024a.793.793 0 11-1.586.001.793.793 0 011.586-.001m9.525 0a.793.793 0 11-1.587.001.793.793 0 011.587-.001" fill="#99C3EF"/><path d="M35.414 24.6c1.2.8 2.766.8 3.968 0m.361-3.972a.992.992 0 011.403 0m-7.555 0a.992.992 0 011.403 0" stroke="#0069D8" stroke-linecap="round" stroke-linejoin="round"/></g></svg>