<svg width="103" height="83" xmlns="http://www.w3.org/2000/svg"><g fill="none" fill-rule="evenodd"><path d="M98.477 45.73C98.477 20.474 77.707 0 52.087 0S5.697 20.474 5.697 45.73c0 6.728 1.487 13.11 4.134 18.863h84.512a44.987 44.987 0 004.134-18.863" fill="#E5F0FB"/><path stroke="#0069D8" stroke-linecap="round" stroke-linejoin="round" d="M5.698 64h90.43M1 64h2.349m96.302 0H102"/><path fill="#FFF" d="M53.849 64h17.616V42H53.85z"/><path stroke="#0069D8" stroke-linecap="round" stroke-linejoin="round" d="M53.849 64h17.616V42H53.85z"/><path d="M84.384 64.767h-8.221v-33.48c0-.318.255-.578.569-.578h7.082c.314 0 .57.26.57.578v33.48z" fill="#FFF"/><path d="M84.384 63h-8.221V29.577c0-.318.255-.577.569-.577h7.082c.314 0 .57.26.57.577V63z" stroke="#0069D8" stroke-linecap="round" stroke-linejoin="round"/><path d="M37.407 64.767H15.093v-14.69c0-.319.26-.577.58-.577h21.155c.318 0 .579.258.579.577v14.69z" fill="#FFF"/><path d="M37.407 64H15.093V49.567c0-.313.26-.567.58-.567h21.155c.318 0 .579.254.579.567V64z" stroke="#0069D8" stroke-linecap="round" stroke-linejoin="round"/><path d="M27.361 57.72h-3.396c-.36 0-.651-.268-.651-.6v-8.794h4.698v8.794c0 .332-.292.6-.651.6" fill="#99C3EF"/><path d="M27.361 57.72h-3.396c-.36 0-.651-.268-.651-.6v-8.794h4.698v8.794c0 .332-.292.6-.651.6z" stroke="#0069D8" stroke-linecap="round" stroke-linejoin="round"/><path d="M84.384 64H66.767V53.653c0-.362.253-.653.563-.653h16.49c.31 0 .564.291.564.653V64z" fill="#FFF"/><path d="M84.616 64H67V53.653c0-.362.252-.653.563-.653h16.49c.31 0 .563.291.563.653V64z" stroke="#0069D8" stroke-linecap="round" stroke-linejoin="round"/><path d="M77.86 58.895h-3.395c-.36 0-.651-.25-.651-.557v-4.14h4.698v4.14c0 .308-.292.557-.651.557" fill="#99C3EF"/><path d="M77.86 58.895h-3.395c-.36 0-.651-.25-.651-.557v-4.14h4.698v4.14c0 .308-.292.557-.651.557z" stroke="#0069D8" stroke-linecap="round" stroke-linejoin="round"/><path d="M82.035 54.198H69.116v-7.652c0-.314.253-.57.565-.57H81.47c.312 0 .565.256.565.57v7.652z" fill="#FFF"/><path d="M82.035 54.198H69.116v-7.652c0-.314.253-.57.565-.57H81.47c.312 0 .565.256.565.57v7.652z" stroke="#0069D8" stroke-linecap="round" stroke-linejoin="round"/><path d="M76.752 50.674H74.4a.572.572 0 01-.586-.557v-4.14h3.523v4.14a.572.572 0 01-.585.557" fill="#99C3EF"/><path d="M76.752 50.674H74.4a.572.572 0 01-.586-.557v-4.14h3.523v4.14a.572.572 0 01-.585.557z" stroke="#0069D8" stroke-linecap="round" stroke-linejoin="round"/><path d="M33.884 49H17.442V37.623c0-.343.255-.623.57-.623h15.302c.315 0 .57.28.57.623V49z" fill="#FFF"/><path d="M33.884 49H17.442V38.571c0-.314.255-.571.57-.571h15.302c.315 0 .57.257.57.571V49z" stroke="#0069D8" stroke-linecap="round" stroke-linejoin="round"/><path d="M27.361 42.453h-3.396c-.36 0-.651-.272-.651-.607v-4.09h4.698v4.09c0 .335-.292.607-.651.607" fill="#99C3EF"/><path d="M27.361 42.453h-3.396c-.36 0-.651-.272-.651-.607v-4.09h4.698v4.09c0 .335-.292.607-.651.607z" stroke="#0069D8" stroke-linecap="round" stroke-linejoin="round"/><path d="M32.71 38h-9.396v-5.377c0-.344.25-.623.558-.623h8.28c.307 0 .557.28.557.623V38z" fill="#FFF"/><path d="M32.71 37.756h-9.396v-5.262c0-.337.25-.61.558-.61h8.28c.307 0 .557.273.557.61v5.262z" stroke="#0069D8" stroke-linecap="round" stroke-linejoin="round"/><path d="M80.86 45.977h-9.395v-6.461c0-.323.25-.586.558-.586h8.28c.308 0 .557.263.557.586v6.46z" fill="#FFF"/><path d="M80.86 45.977h-9.395v-6.461c0-.323.25-.586.558-.586h8.28c.308 0 .557.263.557.586v6.46z" stroke="#0069D8" stroke-linecap="round" stroke-linejoin="round"/><path d="M76.85 42.453h-1.374c-.269 0-.488-.262-.488-.585V38.93h2.35v2.938c0 .323-.22.585-.489.585" fill="#99C3EF"/><path d="M76.85 42.453h-1.374c-.269 0-.488-.262-.488-.585V38.93h2.35v2.938c0 .323-.22.585-.489.585z" stroke="#0069D8" stroke-linecap="round" stroke-linejoin="round"/><path d="M36.233 49.5H20.965v-4.047c0-.36.257-.65.577-.65h14.114c.318 0 .577.29.577.65V49.5z" fill="#FFF"/><path d="M36.233 49.5H20.965v-4.047c0-.36.257-.65.577-.65h14.114c.318 0 .577.29.577.65V49.5z" stroke="#0069D8" stroke-linecap="round" stroke-linejoin="round"/><path d="M65.593 80.622c0 .973-6.046 1.762-13.506 1.762-7.459 0-13.506-.789-13.506-1.762 0-.972 6.047-1.762 13.506-1.762 7.46 0 13.506.79 13.506 1.762" fill="#E5F0FB"/><path fill="#FFF" d="M53.849 77.686h4.698v-9.395h-4.698z"/><path stroke="#0069D8" stroke-linecap="round" stroke-linejoin="round" d="M53.849 77.686h4.698v-9.395h-4.698z"/><path d="M60.85 78.223c.27.36.293.82.058 1.199-.235.379-.69.613-1.183.613h-5.531c-.47 0-.905-.213-1.15-.562A1.042 1.042 0 0153 78.326c1.47-2.47 6.176-2.333 7.852-.103" fill="#99C3EF"/><path d="M60.85 78.223c.27.36.293.82.058 1.199-.235.379-.69.613-1.183.613h-5.531c-.47 0-.905-.213-1.15-.562A1.042 1.042 0 0153 78.326c1.47-2.47 6.176-2.333 7.852-.103z" stroke="#0069D8" stroke-linecap="round" stroke-linejoin="round"/><path fill="#FFF" d="M44.453 77.686h4.698v-9.395h-4.698z"/><path stroke="#0069D8" stroke-linecap="round" stroke-linejoin="round" d="M44.453 77.686h4.698v-9.395h-4.698z"/><path d="M65.593 44.234c0-7.464-6.048-13.525-13.506-13.525-7.455 0-13.506 6.056-13.506 13.525v.795h4.767v10.343h17.478V45.03h4.767v-.795z" fill="#FFF"/><path d="M48.348 69.465c.706 0 1.285-.583 1.31-1.32l.196-6.08c.04-.918.765-1.642 1.647-1.642s1.607.724 1.646 1.642l.197 6.08c.024.737.603 1.32 1.31 1.32h4.931c.36 0 .702-.153.95-.424a1.4 1.4 0 00.359-1.01l-.72-15.008H42.825l-.72 15.008c-.017.373.113.739.36 1.01.248.27.59.424.95.424h4.932z" fill="#FFF"/><path d="M48.348 69.465c.706 0 1.285-.583 1.31-1.32l.196-6.08c.04-.918.765-1.642 1.647-1.642s1.607.724 1.646 1.642l.197 6.08c.024.737.603 1.32 1.31 1.32h4.931c.36 0 .702-.153.95-.424a1.4 1.4 0 00.359-1.01l-.72-15.008H42.825l-.72 15.008c-.017.373.113.739.36 1.01.248.27.59.424.95.424h4.932z" stroke="#0069D8" stroke-linecap="round" stroke-linejoin="round"/><path d="M65.593 44.234c0-7.464-6.048-13.525-13.506-13.525-7.455 0-13.506 6.056-13.506 13.525v.795h4.767v10.343h17.478V45.03h4.767v-.795zm-4.698.568v-4.697m-17.616 4.697v-4.697" stroke="#0069D8" stroke-linecap="round" stroke-linejoin="round"/><path fill="#FFF" d="M43.28 56.547h16.44v-3.524H43.28z"/><path stroke="#0069D8" stroke-linecap="round" stroke-linejoin="round" d="M43.28 56.547h16.44v-3.524H43.28z"/><path fill="#99C3EF" d="M49.151 56.547h4.698v-3.524H49.15z"/><path stroke="#0069D8" stroke-linecap="round" stroke-linejoin="round" d="M49.151 56.547h4.698v-3.524H49.15z"/><path d="M42.324 78.223c-.27.36-.293.82-.058 1.199.235.379.69.613 1.183.613h5.532c.469 0 .905-.213 1.15-.562.242-.35.26-.784.045-1.147-1.47-2.47-6.176-2.333-7.852-.103" fill="#99C3EF"/><path d="M42.324 78.223c-.27.36-.293.82-.058 1.199.235.379.69.613 1.183.613h5.532c.469 0 .905-.213 1.15-.562.242-.35.26-.784.045-1.147-1.47-2.47-6.176-2.333-7.852-.103z" stroke="#0069D8" stroke-linecap="round" stroke-linejoin="round"/><path d="M52.087 30.71c-1.412 0-2.796.262-4.11.738l4.11 7.482 4.11-7.482a12.048 12.048 0 00-4.11-.739z"/><path d="M44.453 35.833c2.461.325 4.663 1.161 7.047 3.097l-4.23-7.046c-.59.196-1.167.432-1.724.708l-1.093 3.24z" fill="#FFF"/><path d="M44.453 35.833c2.461.325 4.663 1.161 7.047 3.097l-4.23-7.046c-.59.196-1.167.432-1.724.708l-1.093 3.24z" stroke="#0069D8" stroke-linecap="round" stroke-linejoin="round"/><path d="M58.547 35.833c-2.462.325-4.663 1.161-7.047 3.097l4.229-7.046c.592.196 1.168.432 1.724.708l1.094 3.24z" fill="#FFF"/><path d="M58.547 35.833c-2.462.325-4.663 1.161-7.047 3.097l4.229-7.046c.592.196 1.168.432 1.724.708l1.094 3.24zM51.5 38.93v3.523" stroke="#0069D8" stroke-linecap="round" stroke-linejoin="round"/><path d="M51.5 27.186c3.497 0 6.422-2.313 7.424-5.482l.005.002c2.474 0 2.624-3.915.392-3.915v-1.565c0-4.325-3.501-7.83-7.821-7.83s-7.82 3.505-7.82 7.83v1.565c-2.233 0-2.083 3.915.39 3.915l.007-.002c1 3.17 3.927 5.482 7.423 5.482" fill="#FFF"/><path d="M51.5 27.186c3.497 0 6.422-2.313 7.424-5.482l.005.002c2.474 0 2.624-3.915.392-3.915v-1.565c0-4.325-3.501-7.83-7.821-7.83s-7.82 3.505-7.82 7.83v1.565c-2.233 0-2.083 3.915.39 3.915l.007-.002c1 3.17 3.927 5.482 7.423 5.482z" stroke="#0069D8" stroke-linecap="round" stroke-linejoin="round"/><path d="M49.151 16.616a1.174 1.174 0 100 2.348 1.174 1.174 0 000-2.348m5.874 0a1.175 1.175 0 10-.002 2.35 1.175 1.175 0 00.002-2.35" fill="#0069D8"/><path d="M47.977 20.727a.587.587 0 11-1.174 0 .587.587 0 011.174 0m9.395 0a.587.587 0 11-1.174 0 .587.587 0 011.174 0" fill="#99C3EF"/><path d="M50.326 22.488c1.066.821 2.456.821 3.523 0" stroke="#0069D8" stroke-linecap="round" stroke-linejoin="round"/><path d="M57.423 7.22H46.751c-1.918 0-3.472 1.52-3.472 3.396v3.651h17.616v-3.651c0-1.875-1.554-3.395-3.472-3.395" fill="#99C3EF"/><path d="M57.423 7.22H46.751c-1.918 0-3.472 1.52-3.472 3.396v3.651h17.616v-3.651c0-1.875-1.554-3.395-3.472-3.395z" stroke="#0069D8" stroke-linecap="round" stroke-linejoin="round"/><path d="M51.5 7.22s-4.698 2.203-4.698 5.873m5.872-5.873s4.698 2.203 4.698 5.873" stroke="#0069D8" stroke-linejoin="round"/><path d="M60.869 15.147c.09.404-.051.821-.374 1.112-.322.29-.785.415-1.231.332-4.349-.81-11.18-.81-15.53 0a1.453 1.453 0 01-1.229-.332 1.155 1.155 0 01-.374-1.112l.387-1.75c7.196-1.973 10.789-1.97 17.964 0l.387 1.75z" fill="#99C3EF"/><path d="M60.869 15.147c.09.404-.051.821-.374 1.112-.322.29-.785.415-1.231.332-4.349-.81-11.18-.81-15.53 0a1.453 1.453 0 01-1.229-.332 1.155 1.155 0 01-.374-1.112l.387-1.75c7.196-1.973 10.789-1.97 17.964 0l.387 1.75z" stroke="#0069D8" stroke-linecap="round" stroke-linejoin="round"/><path fill="#99C3EF" d="M58.547 43.237l-1.763 1.565-1.76-1.565v-3.132h3.523z"/><path stroke="#0069D8" stroke-linecap="round" stroke-linejoin="round" d="M58.547 43.237l-1.763 1.565-1.76-1.565v-3.132h3.523z"/><path d="M43.271 44.802v1.192h-.002c0 8.612 1.76 11.016 3.101 12.28.516.485.579 1.312.142 1.878l-1.36 1.762a1.255 1.255 0 01-1.83.197c-5.012-4.31-4.738-14.047-4.738-15.834l-.002-1.475h4.69z" fill="#FFF"/><path d="M43.271 44.802v1.192h-.002c0 8.612 1.76 11.016 3.101 12.28.516.485.579 1.312.142 1.878l-1.36 1.762a1.255 1.255 0 01-1.83.197c-5.012-4.31-4.738-14.047-4.738-15.834l-.002-1.475h4.69z" stroke="#0069D8" stroke-linecap="round" stroke-linejoin="round"/><path d="M60.902 44.802v1.192h.002c0 8.612-1.76 11.016-3.1 12.28a1.42 1.42 0 00-.142 1.878l1.36 1.762c.218.281.533.46.876.498a1.26 1.26 0 00.954-.301c5.01-4.31 4.738-14.047 4.738-15.834v-1.475h-4.688z" fill="#FFF"/><path d="M60.902 44.802v1.192h.002c0 8.612-1.76 11.016-3.1 12.28a1.42 1.42 0 00-.142 1.878l1.36 1.762c.218.281.533.46.876.498a1.26 1.26 0 00.954-.301c5.01-4.31 4.738-14.047 4.738-15.834v-1.475h-4.688z" stroke="#0069D8" stroke-linecap="round" stroke-linejoin="round"/></g></svg>