<svg width="101" height="83" xmlns="http://www.w3.org/2000/svg"><g fill="none" fill-rule="evenodd"><path d="M96.96 46.178c.009-18.803-11.392-35.721-28.795-42.73-17.403-7.01-37.31-2.702-50.278 10.881C4.917 27.913 1.494 48.04 9.239 65.164h83.635a45.955 45.955 0 004.086-18.986z" fill="#E5F0FB"/><path stroke="#0069D8" stroke-linecap="round" stroke-linejoin="round" d="M5.716 65.164h89.522m-94.687 0H3.42m94.114 0h2.869"/><g transform="translate(14.92 4.753)"><path d="M24.102 66.74a2.873 2.873 0 012.87-2.877h2.295c4.396 0 8.608-3.325 8.608-9.205h5.739c.146 3.91-1.3 7.713-4.005 10.534a14.363 14.363 0 01-10.342 4.424h-2.295a2.873 2.873 0 01-2.87-2.876zm41.307-12.082h5.739v5.753h-5.739z" stroke="#0069D8" fill="#FFF" fill-rule="nonzero" stroke-linecap="round" stroke-linejoin="round"/><path d="M54.506 33.945c-9.821.007-17.779 7.99-17.779 17.836v1.726c0 .635.514 1.15 1.148 1.15h5.739v5.754H65.42v-5.753h5.74a1.15 1.15 0 001.147-1.151V51.78a17.86 17.86 0 00-5.215-12.616 17.767 17.767 0 00-12.586-5.22h0z" stroke="#0069D8" fill="#99C3EF"/><path d="M54.506 33.945c-9.821.007-17.779 7.99-17.779 17.836v1.726c0 .635.514 1.15 1.148 1.15h5.739v5.754H65.42v-5.753h5.74a1.15 1.15 0 001.147-1.151V51.78a17.86 17.86 0 00-5.215-12.616 17.767 17.767 0 00-12.586-5.22h0z" stroke="#0069D8" stroke-linecap="round" stroke-linejoin="round"/><path d="M50.5 34.52a4.022 4.022 0 004.017 4.028 4.022 4.022 0 004.017-4.027v-4.028H50.5v4.028z" fill="#FFF" fill-rule="nonzero"/><path d="M50.5 34.52v-4.027h8.034v4.028a4.022 4.022 0 01-4.017 4.027A4.022 4.022 0 0150.5 34.52zm14.92 25.891v-5.178c0-3.452 2.652-4.603 1.022-8.653a32.998 32.998 0 01-1.022-2.854M43.614 60.411v-5.178c0-3.452-2.64-4.603-1.01-8.653.344-.84.723-1.899 1.01-2.854" stroke="#0069D8" stroke-linecap="round" stroke-linejoin="round"/><rect stroke="#0069D8" fill="#FFF" fill-rule="nonzero" stroke-linecap="round" stroke-linejoin="round" x="20.648" y="52.356" width="10.33" height="18.411" rx="1"/><path d="M25.812 57.534a1.15 1.15 0 00-1.147 1.15 1.15 1.15 0 001.147 1.152 1.15 1.15 0 001.148-1.151 1.15 1.15 0 00-1.148-1.15z" fill="#0069D8" fill-rule="nonzero"/><path stroke="#0069D8" stroke-linecap="round" stroke-linejoin="round" d="M25.812 55.233v1.151"/><path d="M20.143 63.288c.251-.445.766-.67 1.262-.553l2.582.599a2.76 2.76 0 012.043 3.325l-.31 1.346a2.761 2.761 0 01-1.231 1.72 2.749 2.749 0 01-2.085.34l-2.583-.61a1.15 1.15 0 01-.884-1.058 9.351 9.351 0 011.206-5.11z" fill="#FFF" fill-rule="nonzero"/><path d="M20.143 63.288c.251-.445.766-.67 1.262-.553l2.582.599a2.76 2.76 0 012.043 3.325l-.31 1.346a2.761 2.761 0 01-1.231 1.72 2.749 2.749 0 01-2.085.34l-2.583-.61a1.15 1.15 0 01-.884-1.058 9.351 9.351 0 011.206-5.11h0z" stroke="#0069D8" stroke-linecap="round" stroke-linejoin="round"/><path d="M42.466 18.411c-1.584 0-2.87 1.68-2.87 3.74 0 2.06 1.275 3.74 2.87 3.74.493-.013.97-.178 1.366-.472a11.478 11.478 0 0010.685 7.306c4.722 0 8.962-2.899 10.685-7.306a2.39 2.39 0 001.366.471c1.584 0 2.87-1.68 2.87-3.74 0-2.059-1.297-3.739-2.87-3.739h-.574v-2.877c0-6.355-5.138-11.507-11.477-11.507S43.04 9.18 43.04 15.534v2.877h-.574z" stroke="#0069D8" fill="#FFF" fill-rule="nonzero" stroke-linecap="round" stroke-linejoin="round"/><path d="M42.466 21.863a1.15 1.15 0 00-1.148 1.15 1.15 1.15 0 001.148 1.151 1.15 1.15 0 001.148-1.15 1.15 1.15 0 00-1.148-1.151z" fill="#4550E5" fill-rule="nonzero"/><path d="M66.568 21.863a1.15 1.15 0 00-1.148 1.15 1.15 1.15 0 001.148 1.151 1.15 1.15 0 001.148-1.15 1.15 1.15 0 00-1.148-1.151z" fill="#0069D8" fill-rule="nonzero"/><ellipse fill="#D6DAFF" fill-rule="nonzero" cx="47.906" cy="23.301" rx="1.435" ry="1.438"/><ellipse fill="#99C3EF" cx="61.105" cy="23.301" rx="1.435" ry="1.438"/><path d="M57.949 26.224a4.949 4.949 0 01-6.887 0m.586-6.662a1.86 1.86 0 00-3.443 0m12.625 0a1.86 1.86 0 00-3.444 0" stroke="#0069D8" stroke-linecap="round" stroke-linejoin="round"/><path d="M65.983 15.534c0-6.355-5.139-11.507-11.477-11.507-6.34 0-11.478 5.152-11.478 11.507v2.877a1.834 1.834 0 011.35.587c.349.376.525.88.487 1.392a9.458 9.458 0 00.459-4.856c1.046-.1 2.042-.5 2.87-1.15v-2.877a17.896 17.896 0 0012.624 0v2.877a5.478 5.478 0 002.87 1.15 9.597 9.597 0 00.458 4.856 1.844 1.844 0 01.487-1.392 1.834 1.834 0 011.35-.587v-2.877z" stroke="#0069D8" fill="#FFF" fill-rule="nonzero" stroke-linecap="round" stroke-linejoin="round"/><path d="M54.506 4.027A4.022 4.022 0 0050.5 8.055v23.013a7.477 7.477 0 01-5.371 7.222 7.451 7.451 0 01-8.402-3.194 4.022 4.022 0 004.017-4.028v-3.083c-3.443 2.508-5.164-.944-5.164-.944 2.857 0 5.164-2.877 5.164-9.205V8.055a7.49 7.49 0 015.38-7.193 7.463 7.463 0 018.393 3.165h-.011z" fill="#FFF" fill-rule="nonzero"/><path d="M54.506 4.027A4.022 4.022 0 0050.5 8.055v23.013a7.477 7.477 0 01-5.371 7.222 7.451 7.451 0 01-8.402-3.194h0a4.022 4.022 0 004.017-4.028v-3.083c-3.443 2.508-5.164-.944-5.164-.944 2.857 0 5.164-2.877 5.164-9.205V8.055a7.49 7.49 0 015.38-7.193 7.463 7.463 0 018.393 3.165h-.011z" stroke="#0069D8" stroke-linecap="round" stroke-linejoin="round"/><ellipse fill="#E5F0FB" cx="49.915" cy="73.068" rx="11.477" ry="1.726"/><ellipse fill="#E5F0FB" cx="60.818" cy="76.521" rx="7.46" ry="1.726"/><path d="M53.943 70.192a2.873 2.873 0 012.87-2.877 2.873 2.873 0 012.869 2.877 2.836 2.836 0 01-.574 1.726" stroke="#0069D8" stroke-linecap="round" stroke-linejoin="round"/><path d="M53.943 73.068H50.5a1.15 1.15 0 01-1.148-1.15v-4.603c0-.635.514-1.15 1.148-1.15h3.443a2.298 2.298 0 012.296 2.3v2.302a2.298 2.298 0 01-2.296 2.301z" stroke="#0069D8" fill="#99C3EF"/><path d="M42.363 71.342h6.99V67.89h-4.018l-1.148 1.151-1.147-1.15h-1.148l-1.308 1.323a.553.553 0 000 .805l.975.99c.214.212.503.332.804.333z" stroke="#0069D8" fill="#FFF" fill-rule="nonzero" stroke-linecap="round" stroke-linejoin="round"/><path stroke="#0069D8" stroke-linecap="round" stroke-linejoin="round" d="M53.932 68.466v2.301"/><path d="M66.224 73.322l-1.412 2.301a2.295 2.295 0 01-3.443.587L58.672 74a2.305 2.305 0 01-.505-2.98l.907-1.507a2.292 2.292 0 012.869-.92l3.19 1.369a2.306 2.306 0 011.09 3.36z" stroke="#0069D8" fill="#99C3EF"/><path d="M63.125 71.86a1.147 1.147 0 00-.987.553 1.152 1.152 0 00.39 1.576c.176.11.378.17.586.173a1.152 1.152 0 00.597-2.14 1.214 1.214 0 00-.586-.162z" fill="#0069D8" fill-rule="nonzero"/><path d="M59.096 71.918a2.865 2.865 0 01-3.193.987 2.876 2.876 0 01-1.96-2.713" stroke="#0069D8" stroke-linecap="round" stroke-linejoin="round"/><path d="M1.148 33.945v4.603a2.298 2.298 0 002.295 2.301h4.591l6.886-6.904H1.148z" fill="#E8F4FF" fill-rule="nonzero"/><path stroke="#0069D8" fill="#99C3EF" d="M1.136 29.342H9.17v4.603H1.136z"/><path stroke="#0069D8" fill="#99C3EF" d="M9.17 21.288l-8.034-8.055v16.11H9.17zm0-8.055h16.068v8.055H9.17z"/><path fill="#E8F4FF" fill-rule="nonzero" d="M9.17 21.288h16.068v12.658H9.17z"/><path stroke="#0069D8" fill="#99C3EF" d="M14.909 33.945L8.023 40.85H19.5v-6.904z"/><path d="M25.25 21.288h8.034v-9.206a2.298 2.298 0 00-2.295-2.301H3.443a2.298 2.298 0 00-2.295 2.301v1.15l8.034 8.056v-8.055H25.25v8.055z" fill="#E8F4FF" fill-rule="nonzero"/><path stroke="#0069D8" fill="#99C3EF" d="M25.239 21.288h8.034v12.658h-8.034z"/><path d="M19.511 33.945v6.904h2.158c.436-.003.837.243 1.033.633l2.1 4.212a1.147 1.147 0 002.055 0l2.1-4.212a1.15 1.15 0 011.022-.633h1.01a2.298 2.298 0 002.295-2.301v-4.603H19.511z" stroke="#0069D8" fill="#99C3EF"/><path stroke="#FFF" stroke-linecap="round" stroke-linejoin="round" d="M9.17 33.945V9.781m16.069 24.164V9.781m8.034 11.507H9.17l-8.034-8.055M9.17 29.342H1.136M9.17 13.233h16.069M1.136 33.945h32.137m-13.773 0v6.904m-4.591-6.904l-6.886 6.904"/><path d="M30.989 40.85h-1.01a1.147 1.147 0 00-1.022.632l-2.1 4.212a1.147 1.147 0 01-2.055 0l-2.1-4.212a1.147 1.147 0 00-1.033-.633H3.443a2.298 2.298 0 01-2.295-2.301V12.082a2.298 2.298 0 012.295-2.301H30.99a2.298 2.298 0 012.295 2.301v26.466a2.298 2.298 0 01-2.295 2.301z" stroke="#0069D8" stroke-linecap="round" stroke-linejoin="round"/><path d="M23.517 27.455c0 2.13-3.856 6.433-3.856 6.433s-3.845-4.304-3.845-6.433a3.869 3.869 0 011.862-3.523 3.848 3.848 0 013.977 0 3.869 3.869 0 011.862 3.523z" stroke="#4550E5" fill="#FFF" fill-rule="nonzero" stroke-linecap="round" stroke-linejoin="round"/><path d="M23.517 27.455c0 2.13-3.856 6.433-3.856 6.433s-3.845-4.304-3.845-6.433a3.869 3.869 0 011.862-3.523 3.848 3.848 0 013.977 0 3.869 3.869 0 011.862 3.523z" stroke="#0069D8" fill="#FFF" fill-rule="nonzero" stroke-linecap="round" stroke-linejoin="round"/></g></g></svg>